<?xml version="1.0" encoding="UTF-8" standalone="no"?>
<!DOCTYPE svg PUBLIC "-//W3C//DTD SVG 1.1//EN"
 "http://www.w3.org/Graphics/SVG/1.1/DTD/svg11.dtd">
<!-- Generated by graphviz version 2.42.3 (20191010.1750)
 -->
<!-- Title: snakemake_dag Pages: 1 -->
<svg width="490pt" height="841pt"
 viewBox="0.00 0.00 489.50 841.00" xmlns="http://www.w3.org/2000/svg" xmlns:xlink="http://www.w3.org/1999/xlink">
<g id="graph0" class="graph" transform="scale(1 1) rotate(0) translate(4 837)">
<title>snakemake_dag</title>
<polygon fill="white" stroke="transparent" points="-4,4 -4,-837 485.5,-837 485.5,4 -4,4"/>
<!-- 0 -->
<g id="node1" class="node">
<title>0</title>
<path fill="none" stroke="#56c9d8" stroke-width="2" d="M299.5,-36C299.5,-36 269.5,-36 269.5,-36 263.5,-36 257.5,-30 257.5,-24 257.5,-24 257.5,-12 257.5,-12 257.5,-6 263.5,0 269.5,0 269.5,0 299.5,0 299.5,0 305.5,0 311.5,-6 311.5,-12 311.5,-12 311.5,-24 311.5,-24 311.5,-30 305.5,-36 299.5,-36"/>
<text text-anchor="middle" x="284.5" y="-15.5" font-family="sans" font-size="10.00">all</text>
</g>
<!-- 1 -->
<g id="node2" class="node">
<title>1</title>
<path fill="none" stroke="#9fd856" stroke-width="2" d="M264,-108C264,-108 207,-108 207,-108 201,-108 195,-102 195,-96 195,-96 195,-84 195,-84 195,-78 201,-72 207,-72 207,-72 264,-72 264,-72 270,-72 276,-78 276,-84 276,-84 276,-96 276,-96 276,-102 270,-108 264,-108"/>
<text text-anchor="middle" x="235.5" y="-87.5" font-family="sans" font-size="10.00">upload_to_s3</text>
</g>
<!-- 1&#45;&gt;0 -->
<g id="edge1" class="edge">
<title>1&#45;&gt;0</title>
<path fill="none" stroke="grey" stroke-width="2" d="M247.61,-71.7C253.37,-63.47 260.36,-53.48 266.71,-44.42"/>
<polygon fill="grey" stroke="grey" stroke-width="2" points="269.66,-46.3 272.53,-36.1 263.92,-42.29 269.66,-46.3"/>
</g>
<!-- 2 -->
<g id="node3" class="node">
<title>2</title>
<path fill="none" stroke="#d8c356" stroke-width="2" d="M264,-180C264,-180 205,-180 205,-180 199,-180 193,-174 193,-168 193,-168 193,-156 193,-156 193,-150 199,-144 205,-144 205,-144 264,-144 264,-144 270,-144 276,-150 276,-156 276,-156 276,-168 276,-168 276,-174 270,-180 264,-180"/>
<text text-anchor="middle" x="234.5" y="-159.5" font-family="sans" font-size="10.00">final_variants</text>
</g>
<!-- 2&#45;&gt;1 -->
<g id="edge3" class="edge">
<title>2&#45;&gt;1</title>
<path fill="none" stroke="grey" stroke-width="2" d="M234.75,-143.7C234.86,-135.98 234.99,-126.71 235.11,-118.11"/>
<polygon fill="grey" stroke="grey" stroke-width="2" points="238.61,-118.15 235.26,-108.1 231.61,-118.05 238.61,-118.15"/>
</g>
<!-- 3 -->
<g id="node4" class="node">
<title>3</title>
<path fill="none" stroke="#c6d856" stroke-width="2" d="M264,-252C264,-252 199,-252 199,-252 193,-252 187,-246 187,-240 187,-240 187,-228 187,-228 187,-222 193,-216 199,-216 199,-216 264,-216 264,-216 270,-216 276,-222 276,-228 276,-228 276,-240 276,-240 276,-246 270,-252 264,-252"/>
<text text-anchor="middle" x="231.5" y="-231.5" font-family="sans" font-size="10.00">variant_calling</text>
</g>
<!-- 3&#45;&gt;2 -->
<g id="edge4" class="edge">
<title>3&#45;&gt;2</title>
<path fill="none" stroke="grey" stroke-width="2" d="M232.24,-215.7C232.57,-207.98 232.97,-198.71 233.34,-190.11"/>
<polygon fill="grey" stroke="grey" stroke-width="2" points="236.84,-190.25 233.77,-180.1 229.84,-189.95 236.84,-190.25"/>
</g>
<!-- 4 -->
<g id="node5" class="node">
<title>4</title>
<path fill="none" stroke="#56a2d8" stroke-width="2" d="M227.5,-324C227.5,-324 195.5,-324 195.5,-324 189.5,-324 183.5,-318 183.5,-312 183.5,-312 183.5,-300 183.5,-300 183.5,-294 189.5,-288 195.5,-288 195.5,-288 227.5,-288 227.5,-288 233.5,-288 239.5,-294 239.5,-300 239.5,-300 239.5,-312 239.5,-312 239.5,-318 233.5,-324 227.5,-324"/>
<text text-anchor="middle" x="211.5" y="-303.5" font-family="sans" font-size="10.00">mpileup</text>
</g>
<!-- 4&#45;&gt;3 -->
<g id="edge5" class="edge">
<title>4&#45;&gt;3</title>
<path fill="none" stroke="grey" stroke-width="2" d="M216.44,-287.7C218.67,-279.9 221.35,-270.51 223.83,-261.83"/>
<polygon fill="grey" stroke="grey" stroke-width="2" points="227.23,-262.68 226.61,-252.1 220.5,-260.76 227.23,-262.68"/>
</g>
<!-- 5 -->
<g id="node6" class="node">
<title>5</title>
<path fill="none" stroke="#567bd8" stroke-width="2" d="M275,-758.5C275,-758.5 192,-758.5 192,-758.5 186,-758.5 180,-752.5 180,-746.5 180,-746.5 180,-734.5 180,-734.5 180,-728.5 186,-722.5 192,-722.5 192,-722.5 275,-722.5 275,-722.5 281,-722.5 287,-728.5 287,-734.5 287,-734.5 287,-746.5 287,-746.5 287,-752.5 281,-758.5 275,-758.5"/>
<text text-anchor="middle" x="233.5" y="-738" font-family="sans" font-size="10.00">unzip_ref_genome</text>
</g>
<!-- 5&#45;&gt;4 -->
<g id="edge6" class="edge">
<title>5&#45;&gt;4</title>
<path fill="none" stroke="grey" stroke-width="2" d="M210.81,-722.14C181.3,-697.41 133.5,-649 133.5,-595 133.5,-595 133.5,-595 133.5,-449 133.5,-408.55 132.24,-395.01 152.5,-360 158.91,-348.92 168.45,-338.9 177.99,-330.63"/>
<polygon fill="grey" stroke="grey" stroke-width="2" points="180.43,-333.15 185.95,-324.11 175.99,-327.74 180.43,-333.15"/>
</g>
<!-- 12 -->
<g id="node13" class="node">
<title>12</title>
<path fill="none" stroke="#56d8a2" stroke-width="2" d="M262.5,-684C262.5,-684 204.5,-684 204.5,-684 198.5,-684 192.5,-678 192.5,-672 192.5,-672 192.5,-660 192.5,-660 192.5,-654 198.5,-648 204.5,-648 204.5,-648 262.5,-648 262.5,-648 268.5,-648 274.5,-654 274.5,-660 274.5,-660 274.5,-672 274.5,-672 274.5,-678 268.5,-684 262.5,-684"/>
<text text-anchor="middle" x="233.5" y="-663.5" font-family="sans" font-size="10.00">bowtie_index</text>
</g>
<!-- 5&#45;&gt;12 -->
<g id="edge15" class="edge">
<title>5&#45;&gt;12</title>
<path fill="none" stroke="grey" stroke-width="2" d="M233.5,-722.32C233.5,-713.92 233.5,-703.62 233.5,-694.19"/>
<polygon fill="grey" stroke="grey" stroke-width="2" points="237,-694.06 233.5,-684.06 230,-694.06 237,-694.06"/>
</g>
<!-- 17 -->
<g id="node18" class="node">
<title>17</title>
<path fill="none" stroke="#56a2d8" stroke-width="2" d="M356.5,-324C356.5,-324 324.5,-324 324.5,-324 318.5,-324 312.5,-318 312.5,-312 312.5,-312 312.5,-300 312.5,-300 312.5,-294 318.5,-288 324.5,-288 324.5,-288 356.5,-288 356.5,-288 362.5,-288 368.5,-294 368.5,-300 368.5,-300 368.5,-312 368.5,-312 368.5,-318 362.5,-324 356.5,-324"/>
<text text-anchor="middle" x="340.5" y="-303.5" font-family="sans" font-size="10.00">mpileup</text>
</g>
<!-- 5&#45;&gt;17 -->
<g id="edge20" class="edge">
<title>5&#45;&gt;17</title>
<path fill="none" stroke="grey" stroke-width="2" d="M252.59,-722.42C278.48,-697.28 321.5,-647.58 321.5,-595 321.5,-595 321.5,-595 321.5,-449 321.5,-408.86 329.05,-362.9 334.63,-334.4"/>
<polygon fill="grey" stroke="grey" stroke-width="2" points="338.11,-334.88 336.66,-324.39 331.24,-333.5 338.11,-334.88"/>
</g>
<!-- 6 -->
<g id="node7" class="node">
<title>6</title>
<path fill="none" stroke="#d8a456" stroke-width="2" d="M292.5,-833C292.5,-833 174.5,-833 174.5,-833 168.5,-833 162.5,-827 162.5,-821 162.5,-821 162.5,-809 162.5,-809 162.5,-803 168.5,-797 174.5,-797 174.5,-797 292.5,-797 292.5,-797 298.5,-797 304.5,-803 304.5,-809 304.5,-809 304.5,-821 304.5,-821 304.5,-827 298.5,-833 292.5,-833"/>
<text text-anchor="middle" x="233.5" y="-818" font-family="sans" font-size="10.00">download_reference</text>
<text text-anchor="middle" x="233.5" y="-807" font-family="sans" font-size="10.00">project_dir: /home/ubuntu</text>
</g>
<!-- 6&#45;&gt;5 -->
<g id="edge9" class="edge">
<title>6&#45;&gt;5</title>
<path fill="none" stroke="grey" stroke-width="2" d="M233.5,-796.82C233.5,-788.42 233.5,-778.12 233.5,-768.69"/>
<polygon fill="grey" stroke="grey" stroke-width="2" points="237,-768.56 233.5,-758.56 230,-768.56 237,-768.56"/>
</g>
<!-- 7 -->
<g id="node8" class="node">
<title>7</title>
<path fill="none" stroke="#d87d56" stroke-width="2" d="M235.5,-468C235.5,-468 205.5,-468 205.5,-468 199.5,-468 193.5,-462 193.5,-456 193.5,-456 193.5,-444 193.5,-444 193.5,-438 199.5,-432 205.5,-432 205.5,-432 235.5,-432 235.5,-432 241.5,-432 247.5,-438 247.5,-444 247.5,-444 247.5,-456 247.5,-456 247.5,-462 241.5,-468 235.5,-468"/>
<text text-anchor="middle" x="220.5" y="-447.5" font-family="sans" font-size="10.00">sort</text>
</g>
<!-- 7&#45;&gt;4 -->
<g id="edge7" class="edge">
<title>7&#45;&gt;4</title>
<path fill="none" stroke="grey" stroke-width="2" d="M239.97,-431.92C249.32,-422.4 259.55,-409.72 264.5,-396 269.93,-380.95 270.62,-374.78 264.5,-360 259.96,-349.03 251.91,-339.14 243.45,-330.96"/>
<polygon fill="grey" stroke="grey" stroke-width="2" points="245.75,-328.33 235.98,-324.23 241.06,-333.53 245.75,-328.33"/>
</g>
<!-- 13 -->
<g id="node14" class="node">
<title>13</title>
<path fill="none" stroke="#d85656" stroke-width="2" d="M243.5,-396C243.5,-396 173.5,-396 173.5,-396 167.5,-396 161.5,-390 161.5,-384 161.5,-384 161.5,-372 161.5,-372 161.5,-366 167.5,-360 173.5,-360 173.5,-360 243.5,-360 243.5,-360 249.5,-360 255.5,-366 255.5,-372 255.5,-372 255.5,-384 255.5,-384 255.5,-390 249.5,-396 243.5,-396"/>
<text text-anchor="middle" x="208.5" y="-375.5" font-family="sans" font-size="10.00">samtools_index</text>
</g>
<!-- 7&#45;&gt;13 -->
<g id="edge16" class="edge">
<title>7&#45;&gt;13</title>
<path fill="none" stroke="grey" stroke-width="2" d="M217.53,-431.7C216.21,-423.98 214.62,-414.71 213.15,-406.11"/>
<polygon fill="grey" stroke="grey" stroke-width="2" points="216.57,-405.37 211.43,-396.1 209.67,-406.55 216.57,-405.37"/>
</g>
<!-- 8 -->
<g id="node9" class="node">
<title>8</title>
<path fill="none" stroke="#56d8c9" stroke-width="2" d="M248.5,-540C248.5,-540 192.5,-540 192.5,-540 186.5,-540 180.5,-534 180.5,-528 180.5,-528 180.5,-516 180.5,-516 180.5,-510 186.5,-504 192.5,-504 192.5,-504 248.5,-504 248.5,-504 254.5,-504 260.5,-510 260.5,-516 260.5,-516 260.5,-528 260.5,-528 260.5,-534 254.5,-540 248.5,-540"/>
<text text-anchor="middle" x="220.5" y="-519.5" font-family="sans" font-size="10.00">sam_to_bam</text>
</g>
<!-- 8&#45;&gt;7 -->
<g id="edge10" class="edge">
<title>8&#45;&gt;7</title>
<path fill="none" stroke="grey" stroke-width="2" d="M220.5,-503.7C220.5,-495.98 220.5,-486.71 220.5,-478.11"/>
<polygon fill="grey" stroke="grey" stroke-width="2" points="224,-478.1 220.5,-468.1 217,-478.1 224,-478.1"/>
</g>
<!-- 9 -->
<g id="node10" class="node">
<title>9</title>
<path fill="none" stroke="#59d856" stroke-width="2" d="M235.5,-612C235.5,-612 205.5,-612 205.5,-612 199.5,-612 193.5,-606 193.5,-600 193.5,-600 193.5,-588 193.5,-588 193.5,-582 199.5,-576 205.5,-576 205.5,-576 235.5,-576 235.5,-576 241.5,-576 247.5,-582 247.5,-588 247.5,-588 247.5,-600 247.5,-600 247.5,-606 241.5,-612 235.5,-612"/>
<text text-anchor="middle" x="220.5" y="-591.5" font-family="sans" font-size="10.00">bowtie</text>
</g>
<!-- 9&#45;&gt;8 -->
<g id="edge11" class="edge">
<title>9&#45;&gt;8</title>
<path fill="none" stroke="grey" stroke-width="2" d="M220.5,-575.7C220.5,-567.98 220.5,-558.71 220.5,-550.11"/>
<polygon fill="grey" stroke="grey" stroke-width="2" points="224,-550.1 220.5,-540.1 217,-550.1 224,-550.1"/>
</g>
<!-- 10 -->
<g id="node11" class="node">
<title>10</title>
<path fill="none" stroke="#78d856" stroke-width="2" d="M93.5,-684C93.5,-684 63.5,-684 63.5,-684 57.5,-684 51.5,-678 51.5,-672 51.5,-672 51.5,-660 51.5,-660 51.5,-654 57.5,-648 63.5,-648 63.5,-648 93.5,-648 93.5,-648 99.5,-648 105.5,-654 105.5,-660 105.5,-660 105.5,-672 105.5,-672 105.5,-678 99.5,-684 93.5,-684"/>
<text text-anchor="middle" x="78.5" y="-663.5" font-family="sans" font-size="10.00">trim</text>
</g>
<!-- 10&#45;&gt;9 -->
<g id="edge12" class="edge">
<title>10&#45;&gt;9</title>
<path fill="none" stroke="grey" stroke-width="2" d="M105.54,-651.67C127.81,-640.69 159.57,-625.03 184.07,-612.96"/>
<polygon fill="grey" stroke="grey" stroke-width="2" points="185.65,-616.08 193.07,-608.52 182.56,-609.8 185.65,-616.08"/>
</g>
<!-- 11 -->
<g id="node12" class="node">
<title>11</title>
<path fill="none" stroke="#56d87b" stroke-width="2" d="M145,-761C145,-761 12,-761 12,-761 6,-761 0,-755 0,-749 0,-749 0,-732 0,-732 0,-726 6,-720 12,-720 12,-720 145,-720 145,-720 151,-720 157,-726 157,-732 157,-732 157,-749 157,-749 157,-755 151,-761 145,-761"/>
<text text-anchor="middle" x="78.5" y="-749" font-family="sans" font-size="10.00">download_trail</text>
<text text-anchor="middle" x="78.5" y="-738" font-family="sans" font-size="10.00">project_dir: /home/ubuntu</text>
<text text-anchor="middle" x="78.5" y="-727" font-family="sans" font-size="10.00">trail_accession: SRR2589044</text>
</g>
<!-- 11&#45;&gt;10 -->
<g id="edge14" class="edge">
<title>11&#45;&gt;10</title>
<path fill="none" stroke="grey" stroke-width="2" d="M78.5,-719.69C78.5,-711.91 78.5,-702.84 78.5,-694.45"/>
<polygon fill="grey" stroke="grey" stroke-width="2" points="82,-694.32 78.5,-684.32 75,-694.32 82,-694.32"/>
</g>
<!-- 12&#45;&gt;9 -->
<g id="edge13" class="edge">
<title>12&#45;&gt;9</title>
<path fill="none" stroke="grey" stroke-width="2" d="M230.29,-647.7C228.85,-639.98 227.13,-630.71 225.54,-622.11"/>
<polygon fill="grey" stroke="grey" stroke-width="2" points="228.94,-621.3 223.68,-612.1 222.06,-622.58 228.94,-621.3"/>
</g>
<!-- 20 -->
<g id="node21" class="node">
<title>20</title>
<path fill="none" stroke="#59d856" stroke-width="2" d="M401.5,-612C401.5,-612 371.5,-612 371.5,-612 365.5,-612 359.5,-606 359.5,-600 359.5,-600 359.5,-588 359.5,-588 359.5,-582 365.5,-576 371.5,-576 371.5,-576 401.5,-576 401.5,-576 407.5,-576 413.5,-582 413.5,-588 413.5,-588 413.5,-600 413.5,-600 413.5,-606 407.5,-612 401.5,-612"/>
<text text-anchor="middle" x="386.5" y="-591.5" font-family="sans" font-size="10.00">bowtie</text>
</g>
<!-- 12&#45;&gt;20 -->
<g id="edge26" class="edge">
<title>12&#45;&gt;20</title>
<path fill="none" stroke="grey" stroke-width="2" d="M270.93,-647.88C294.98,-636.87 326.08,-622.64 349.96,-611.72"/>
<polygon fill="grey" stroke="grey" stroke-width="2" points="351.42,-614.9 359.06,-607.56 348.51,-608.53 351.42,-614.9"/>
</g>
<!-- 13&#45;&gt;4 -->
<g id="edge8" class="edge">
<title>13&#45;&gt;4</title>
<path fill="none" stroke="grey" stroke-width="2" d="M209.24,-359.7C209.57,-351.98 209.97,-342.71 210.34,-334.11"/>
<polygon fill="grey" stroke="grey" stroke-width="2" points="213.84,-334.25 210.77,-324.1 206.84,-333.95 213.84,-334.25"/>
</g>
<!-- 14 -->
<g id="node15" class="node">
<title>14</title>
<path fill="none" stroke="#9fd856" stroke-width="2" d="M364,-108C364,-108 307,-108 307,-108 301,-108 295,-102 295,-96 295,-96 295,-84 295,-84 295,-78 301,-72 307,-72 307,-72 364,-72 364,-72 370,-72 376,-78 376,-84 376,-84 376,-96 376,-96 376,-102 370,-108 364,-108"/>
<text text-anchor="middle" x="335.5" y="-87.5" font-family="sans" font-size="10.00">upload_to_s3</text>
</g>
<!-- 14&#45;&gt;0 -->
<g id="edge2" class="edge">
<title>14&#45;&gt;0</title>
<path fill="none" stroke="grey" stroke-width="2" d="M322.89,-71.7C316.9,-63.47 309.62,-53.48 303.02,-44.42"/>
<polygon fill="grey" stroke="grey" stroke-width="2" points="305.68,-42.13 296.96,-36.1 300.02,-46.25 305.68,-42.13"/>
</g>
<!-- 15 -->
<g id="node16" class="node">
<title>15</title>
<path fill="none" stroke="#d8c356" stroke-width="2" d="M367,-180C367,-180 308,-180 308,-180 302,-180 296,-174 296,-168 296,-168 296,-156 296,-156 296,-150 302,-144 308,-144 308,-144 367,-144 367,-144 373,-144 379,-150 379,-156 379,-156 379,-168 379,-168 379,-174 373,-180 367,-180"/>
<text text-anchor="middle" x="337.5" y="-159.5" font-family="sans" font-size="10.00">final_variants</text>
</g>
<!-- 15&#45;&gt;14 -->
<g id="edge17" class="edge">
<title>15&#45;&gt;14</title>
<path fill="none" stroke="grey" stroke-width="2" d="M337.01,-143.7C336.79,-135.98 336.52,-126.71 336.27,-118.11"/>
<polygon fill="grey" stroke="grey" stroke-width="2" points="339.77,-118 335.99,-108.1 332.78,-118.2 339.77,-118"/>
</g>
<!-- 16 -->
<g id="node17" class="node">
<title>16</title>
<path fill="none" stroke="#c6d856" stroke-width="2" d="M372,-252C372,-252 307,-252 307,-252 301,-252 295,-246 295,-240 295,-240 295,-228 295,-228 295,-222 301,-216 307,-216 307,-216 372,-216 372,-216 378,-216 384,-222 384,-228 384,-228 384,-240 384,-240 384,-246 378,-252 372,-252"/>
<text text-anchor="middle" x="339.5" y="-231.5" font-family="sans" font-size="10.00">variant_calling</text>
</g>
<!-- 16&#45;&gt;15 -->
<g id="edge18" class="edge">
<title>16&#45;&gt;15</title>
<path fill="none" stroke="grey" stroke-width="2" d="M339.01,-215.7C338.79,-207.98 338.52,-198.71 338.27,-190.11"/>
<polygon fill="grey" stroke="grey" stroke-width="2" points="341.77,-190 337.99,-180.1 334.78,-190.2 341.77,-190"/>
</g>
<!-- 17&#45;&gt;16 -->
<g id="edge19" class="edge">
<title>17&#45;&gt;16</title>
<path fill="none" stroke="grey" stroke-width="2" d="M340.25,-287.7C340.14,-279.98 340.01,-270.71 339.89,-262.11"/>
<polygon fill="grey" stroke="grey" stroke-width="2" points="343.39,-262.05 339.74,-252.1 336.39,-262.15 343.39,-262.05"/>
</g>
<!-- 18 -->
<g id="node19" class="node">
<title>18</title>
<path fill="none" stroke="#d87d56" stroke-width="2" d="M404.5,-468C404.5,-468 374.5,-468 374.5,-468 368.5,-468 362.5,-462 362.5,-456 362.5,-456 362.5,-444 362.5,-444 362.5,-438 368.5,-432 374.5,-432 374.5,-432 404.5,-432 404.5,-432 410.5,-432 416.5,-438 416.5,-444 416.5,-444 416.5,-456 416.5,-456 416.5,-462 410.5,-468 404.5,-468"/>
<text text-anchor="middle" x="389.5" y="-447.5" font-family="sans" font-size="10.00">sort</text>
</g>
<!-- 18&#45;&gt;17 -->
<g id="edge21" class="edge">
<title>18&#45;&gt;17</title>
<path fill="none" stroke="grey" stroke-width="2" d="M383.59,-431.87C375.2,-407.56 359.76,-362.82 349.82,-334.01"/>
<polygon fill="grey" stroke="grey" stroke-width="2" points="353,-332.5 346.43,-324.19 346.38,-334.78 353,-332.5"/>
</g>
<!-- 23 -->
<g id="node24" class="node">
<title>23</title>
<path fill="none" stroke="#d85656" stroke-width="2" d="M469.5,-396C469.5,-396 399.5,-396 399.5,-396 393.5,-396 387.5,-390 387.5,-384 387.5,-384 387.5,-372 387.5,-372 387.5,-366 393.5,-360 399.5,-360 399.5,-360 469.5,-360 469.5,-360 475.5,-360 481.5,-366 481.5,-372 481.5,-372 481.5,-384 481.5,-384 481.5,-390 475.5,-396 469.5,-396"/>
<text text-anchor="middle" x="434.5" y="-375.5" font-family="sans" font-size="10.00">samtools_index</text>
</g>
<!-- 18&#45;&gt;23 -->
<g id="edge28" class="edge">
<title>18&#45;&gt;23</title>
<path fill="none" stroke="grey" stroke-width="2" d="M400.62,-431.7C405.86,-423.56 412.2,-413.69 417.98,-404.7"/>
<polygon fill="grey" stroke="grey" stroke-width="2" points="421.04,-406.41 423.5,-396.1 415.15,-402.62 421.04,-406.41"/>
</g>
<!-- 19 -->
<g id="node20" class="node">
<title>19</title>
<path fill="none" stroke="#56d8c9" stroke-width="2" d="M417.5,-540C417.5,-540 361.5,-540 361.5,-540 355.5,-540 349.5,-534 349.5,-528 349.5,-528 349.5,-516 349.5,-516 349.5,-510 355.5,-504 361.5,-504 361.5,-504 417.5,-504 417.5,-504 423.5,-504 429.5,-510 429.5,-516 429.5,-516 429.5,-528 429.5,-528 429.5,-534 423.5,-540 417.5,-540"/>
<text text-anchor="middle" x="389.5" y="-519.5" font-family="sans" font-size="10.00">sam_to_bam</text>
</g>
<!-- 19&#45;&gt;18 -->
<g id="edge23" class="edge">
<title>19&#45;&gt;18</title>
<path fill="none" stroke="grey" stroke-width="2" d="M389.5,-503.7C389.5,-495.98 389.5,-486.71 389.5,-478.11"/>
<polygon fill="grey" stroke="grey" stroke-width="2" points="393,-478.1 389.5,-468.1 386,-478.1 393,-478.1"/>
</g>
<!-- 20&#45;&gt;19 -->
<g id="edge24" class="edge">
<title>20&#45;&gt;19</title>
<path fill="none" stroke="grey" stroke-width="2" d="M387.24,-575.7C387.57,-567.98 387.97,-558.71 388.34,-550.11"/>
<polygon fill="grey" stroke="grey" stroke-width="2" points="391.84,-550.25 388.77,-540.1 384.84,-549.95 391.84,-550.25"/>
</g>
<!-- 21 -->
<g id="node22" class="node">
<title>21</title>
<path fill="none" stroke="#78d856" stroke-width="2" d="M401.5,-684C401.5,-684 371.5,-684 371.5,-684 365.5,-684 359.5,-678 359.5,-672 359.5,-672 359.5,-660 359.5,-660 359.5,-654 365.5,-648 371.5,-648 371.5,-648 401.5,-648 401.5,-648 407.5,-648 413.5,-654 413.5,-660 413.5,-660 413.5,-672 413.5,-672 413.5,-678 407.5,-684 401.5,-684"/>
<text text-anchor="middle" x="386.5" y="-663.5" font-family="sans" font-size="10.00">trim</text>
</g>
<!-- 21&#45;&gt;20 -->
<g id="edge25" class="edge">
<title>21&#45;&gt;20</title>
<path fill="none" stroke="grey" stroke-width="2" d="M386.5,-647.7C386.5,-639.98 386.5,-630.71 386.5,-622.11"/>
<polygon fill="grey" stroke="grey" stroke-width="2" points="390,-622.1 386.5,-612.1 383,-622.1 390,-622.1"/>
</g>
<!-- 22 -->
<g id="node23" class="node">
<title>22</title>
<path fill="none" stroke="#56d87b" stroke-width="2" d="M453,-761C453,-761 320,-761 320,-761 314,-761 308,-755 308,-749 308,-749 308,-732 308,-732 308,-726 314,-720 320,-720 320,-720 453,-720 453,-720 459,-720 465,-726 465,-732 465,-732 465,-749 465,-749 465,-755 459,-761 453,-761"/>
<text text-anchor="middle" x="386.5" y="-749" font-family="sans" font-size="10.00">download_trail</text>
<text text-anchor="middle" x="386.5" y="-738" font-family="sans" font-size="10.00">project_dir: /home/ubuntu</text>
<text text-anchor="middle" x="386.5" y="-727" font-family="sans" font-size="10.00">trail_accession: SRR2584866</text>
</g>
<!-- 22&#45;&gt;21 -->
<g id="edge27" class="edge">
<title>22&#45;&gt;21</title>
<path fill="none" stroke="grey" stroke-width="2" d="M386.5,-719.69C386.5,-711.91 386.5,-702.84 386.5,-694.45"/>
<polygon fill="grey" stroke="grey" stroke-width="2" points="390,-694.32 386.5,-684.32 383,-694.32 390,-694.32"/>
</g>
<!-- 23&#45;&gt;17 -->
<g id="edge22" class="edge">
<title>23&#45;&gt;17</title>
<path fill="none" stroke="grey" stroke-width="2" d="M411.26,-359.7C399.31,-350.8 384.58,-339.82 371.65,-330.2"/>
<polygon fill="grey" stroke="grey" stroke-width="2" points="373.58,-327.27 363.47,-324.1 369.4,-332.88 373.58,-327.27"/>
</g>
</g>
</svg>
